<?xml version="1.0" encoding="utf-8"?>
<!-- Generator: Adobe Illustrator 27.5.0, SVG Export Plug-In . SVG Version: 6.00 Build 0)  -->
<svg version="1.1" xmlns="http://www.w3.org/2000/svg" xmlns:xlink="http://www.w3.org/1999/xlink" x="0px" y="0px"
     viewBox="0 0 500 500" style="enable-background:new 0 0 500 500;" xml:space="preserve">
<g id="BACKGROUND">
    <rect x="0" style="fill:#FFFFFF;" width="499.999" height="500"/>
</g>
<g id="OBJECTS">
    <g>
        <g>
            <g>
                <path style="fill:#3B4051;" d="M229.982,297.934l-59.829-59.829l21.899-81.728l81.727-21.899l59.83,59.829l-21.899,81.728
                    L229.982,297.934z M177.612,236.106l54.368,54.368l74.269-19.9l19.901-74.269l-54.37-54.368l-74.267,19.9L177.612,236.106z"/>
            </g>
            <g>
                <circle style="fill:#3B4051;" cx="272.043" cy="138.208" r="22.663"/>
            </g>
            <g>
                <path style="fill:#FF6224;" d="M272.043,144.152c-0.92,0-2.688-0.226-4.203-1.741c-1.514-1.515-1.741-3.283-1.741-4.202
                    c0-0.919,0.225-2.688,1.741-4.202c1.515-1.515,3.283-1.741,4.203-1.741c0.92,0,2.688,0.226,4.203,1.741
                    c2.316,2.317,2.316,6.088-0.001,8.406C274.731,143.925,272.963,144.152,272.043,144.152z"/>
            </g>
            <g>
                <circle style="fill:#3B4051;" cx="173.145" cy="237.106" r="22.663"/>
            </g>
            <g>
                <path style="fill:#FF6224;" d="M173.145,243.049c-0.919,0-2.688-0.226-4.203-1.741c-2.317-2.317-2.317-6.088,0.001-8.405
                    c1.514-1.514,3.283-1.741,4.202-1.741c0.92,0,2.688,0.226,4.203,1.741c2.317,2.317,2.317,6.088,0,8.406
                    C175.833,242.823,174.065,243.049,173.145,243.049z"/>
            </g>
            <g>
                <circle style="fill:#3B4051;" cx="194.782" cy="159.108" r="22.663"/>
            </g>
            <g>
                <path style="fill:#FF6224;" d="M194.782,165.051c-0.919,0-2.688-0.226-4.203-1.741c-2.317-2.317-2.317-6.088,0.001-8.405
                    c1.514-1.514,3.283-1.741,4.202-1.741c0.92,0,2.688,0.226,4.203,1.741c2.317,2.317,2.317,6.088-0.001,8.406
                    C197.47,164.825,195.702,165.051,194.782,165.051z"/>
            </g>
            <g>
                <g>
                    <circle style="fill:#3B4051;" cx="251.143" cy="215.693" r="28.619"/>
                </g>
            </g>
            <g>
                <circle style="fill:#3B4051;" cx="308.979" cy="273.305" r="22.663"/>
            </g>
            <g>
                <path style="fill:#FF6224;" d="M308.97,279.249c-0.948,0-2.798-0.241-4.343-1.885c-2.109-2.246-2.11-5.871,0-8.116
                    c1.545-1.644,3.396-1.886,4.343-1.886c0.92,0,2.688,0.226,4.202,1.74c1.516,1.516,1.742,3.284,1.742,4.204
                    c0,0.919-0.226,2.688-1.741,4.203C311.659,279.022,309.89,279.249,308.97,279.249z"/>
            </g>
            <g>
                <path style="fill:#3B4051;" d="M270.204,160.648c-2.466,0.638-4.734,1.473-6.949,2.361c-2.222,0.882-4.342,1.865-6.42,2.89
                    c-4.169,2.038-8.075,4.339-11.836,6.785c-7.496,4.918-14.338,10.49-20.655,16.586c-6.327,6.086-12.078,12.75-17.012,20.229
                    c-2.462,3.745-4.733,7.681-6.723,11.898c-0.496,1.056-0.959,2.144-1.441,3.215c-0.44,1.112-0.907,2.196-1.314,3.341
                    c-0.838,2.265-1.597,4.61-2.133,7.178L175.12,214.53c2.568-0.536,4.913-1.294,7.178-2.133c1.146-0.406,2.23-0.874,3.341-1.314
                    c1.071-0.481,2.159-0.945,3.215-1.441c4.217-1.99,8.153-4.261,11.898-6.723c7.48-4.934,14.143-10.685,20.229-17.012
                    c6.097-6.317,11.668-13.16,16.586-20.655c2.446-3.761,4.747-7.667,6.785-11.836c1.025-2.078,2.008-4.199,2.89-6.42
                    c0.888-2.215,1.724-4.483,2.361-6.949L270.204,160.648z"/>
            </g>
            <g>
                <circle style="fill:#3B4051;" cx="328.115" cy="194.28" r="22.663"/>
            </g>
            <g>
                <path style="fill:#FF6224;" d="M328.115,200.224c-0.92,0-2.688-0.226-4.202-1.741c-1.516-1.515-1.742-3.284-1.742-4.203
                    c0-0.92,0.225-2.688,1.741-4.202c1.515-1.515,3.283-1.742,4.203-1.742c0.919,0,2.686,0.226,4.201,1.74
                    c1.516,1.515,1.742,3.284,1.742,4.204c0,0.919-0.225,2.688-1.74,4.202C330.802,199.997,329.034,200.224,328.115,200.224z"/>
            </g>
            <g>
                <circle style="fill:#3B4051;" cx="229.217" cy="293.178" r="22.663"/>
            </g>
            <g>
                <path style="fill:#FF6224;" d="M229.217,299.121c-0.919,0-2.688-0.225-4.202-1.741c-2.317-2.318-2.317-6.088,0-8.406
                    c1.514-1.515,3.283-1.741,4.202-1.741s2.688,0.226,4.203,1.741c2.317,2.318,2.317,6.088-0.001,8.406
                    C231.905,298.895,230.136,299.121,229.217,299.121z"/>
            </g>
            <g>
                <path style="fill:#3B4051;" d="M326.276,216.72c-2.466,0.638-4.734,1.473-6.949,2.361c-2.221,0.882-4.342,1.865-6.42,2.89
                    c-4.169,2.038-8.075,4.339-11.836,6.785c-7.496,4.918-14.338,10.489-20.655,16.586c-6.328,6.086-12.078,12.75-17.013,20.229
                    c-2.462,3.745-4.733,7.681-6.723,11.898c-0.496,1.056-0.96,2.144-1.441,3.214c-0.44,1.112-0.908,2.196-1.314,3.342
                    c-0.838,2.265-1.597,4.61-2.133,7.178l-20.601-20.601c2.568-0.536,4.913-1.294,7.178-2.133c1.146-0.406,2.23-0.874,3.342-1.314
                    c1.07-0.481,2.159-0.945,3.214-1.441c4.217-1.99,8.153-4.261,11.898-6.723c7.48-4.934,14.143-10.685,20.229-17.012
                    c6.097-6.317,11.668-13.16,16.586-20.655c2.446-3.761,4.747-7.667,6.785-11.836c1.025-2.078,2.008-4.199,2.89-6.42
                    c0.888-2.215,1.724-4.483,2.361-6.949L326.276,216.72z"/>
            </g>
            <g>
                <path style="fill:#FF6224;" d="M198.846,155.058c3.012,6.371,6.953,11.815,11.127,17.027c4.219,5.168,8.781,9.993,13.655,14.508
                    c4.87,4.518,10.151,8.627,15.973,12.198c2.908,1.787,5.974,3.418,9.195,4.894c1.628,0.72,3.277,1.42,5.011,2.035
                    c1.726,0.623,3.501,1.197,5.432,1.615l-16.45,16.394c-0.412-1.932-0.98-3.71-1.597-5.438c-0.609-1.736-1.303-3.387-2.018-5.018
                    c-1.465-3.226-3.085-6.298-4.863-9.212c-3.551-5.834-7.642-11.128-12.143-16.014c-4.498-4.889-9.308-9.468-14.461-13.704
                    c-5.198-4.192-10.628-8.152-16.989-11.185L198.846,155.058z"/>
            </g>
            <g>
                <path style="fill:#FF6224;" d="M258.883,207.639c1.003,3.79,2.441,7.143,3.977,10.398c1.568,3.223,3.279,6.303,5.137,9.234
                    c3.71,5.871,7.934,11.225,12.528,16.208c4.607,4.971,9.499,9.656,14.791,13.939c5.315,4.26,10.876,8.274,17.391,11.331
                    l-8.286,8.311c-3.077-6.505-7.108-12.054-11.384-17.357c-4.3-5.279-9-10.156-13.984-14.748
                    c-4.997-4.579-10.364-8.787-16.246-12.479c-2.938-1.849-6.022-3.551-9.25-5.109c-3.26-1.526-6.617-2.954-10.41-3.945
                    L258.883,207.639z"/>
            </g>
            <g>
                <path style="fill:#FF6224;" d="M251.142,227.58c-1.839,0-5.376-0.453-8.406-3.482c-4.634-4.634-4.634-12.175,0-16.81
                    c3.029-3.028,6.567-3.481,8.406-3.481c1.839,0,5.376,0.453,8.402,3.481c3.033,3.029,3.483,6.567,3.483,8.406
                    c0,1.838-0.453,5.375-3.481,8.406C256.518,227.127,252.981,227.58,251.142,227.58z"/>
            </g>
        </g>
    </g>
</g>
</svg>